<?xml version="1.0" encoding="utf-8"?>
<!-- Generator: Adobe Illustrator 24.0.1, SVG Export Plug-In . SVG Version: 6.00 Build 0)  -->
<svg version="1.1" id="Layer_1" xmlns="http://www.w3.org/2000/svg" xmlns:xlink="http://www.w3.org/1999/xlink" x="0px" y="0px"
	 viewBox="0 0 1024 1024" style="enable-background:new 0 0 1024 1024;" xml:space="preserve">
<style type="text/css">
	.st0{fill:#FFFFFF;}
	.st1{fill:#BF0000;}
</style>
<rect x="0" class="st0" width="1024" height="1024"/>
<path class="st1" d="M53.9,422.5l7.6-25.2c14.3,3.5,27.4,6.2,39.5,8.1c12.1,1.9,23,2.9,32.8,2.9c24.1,0,43-4.7,56.6-14
	c13.6-9.4,20.5-23.2,20.5-41.6c0-16.8-6-30.2-18.1-40.2c-12.1-10-28.6-15-49.5-15h-34.7v-27.1h24.8c14,0,26.3-2.2,37.1-6.7
	c10.8-4.4,19.2-10.9,25.2-19.3c6-8.4,9-18.3,9-29.7c0-7.9-1.5-15.2-4.5-21.9c-3-6.7-7.1-12.7-12.1-18.1c-12.4-3.5-26.8-5.2-43.3-5.2
	c-11.4,0-23.6,0.9-36.4,2.6c-12.9,1.7-26.6,4.4-41.2,7.9l-7.6-25.2c15.5-4.4,30.5-7.7,45-9.8c14.4-2.1,27.8-3.1,40.2-3.1
	c20.6,0,38.2,2.6,52.6,7.9c14.4,5.2,25.6,12.9,33.6,22.8c7.9,10,11.9,22.1,11.9,36.4c0,16.8-5.6,31.7-16.7,44.5
	c-11.1,12.9-26.8,22.1-47.1,27.8c22.8,4.8,40.3,13.4,52.4,25.9c12.1,12.5,18.1,28.3,18.1,47.4c0,17.1-4.7,31.7-14,43.8
	c-9.4,12.1-22.5,21.3-39.3,27.8c-16.8,6.5-36.5,9.8-59,9.8c-12.7,0-25.9-1.1-39.7-3.3S69.1,427,53.9,422.5z M56.2,337.8h14.3
	l21.4,84.7H53.9L56.2,337.8z M61.5,238.8l-1.9-84.3h37.6l-21.4,84.3H61.5z"/>
<path class="st1" d="M317.6,422.5l7.6-25.2c14.3,3.5,27.4,6.2,39.5,8.1c12.1,1.9,23,2.9,32.8,2.9c24.1,0,43-4.7,56.6-14
	c13.6-9.4,20.5-23.2,20.5-41.6c0-16.8-6-30.2-18.1-40.2c-12.1-10-28.6-15-49.5-15h-34.7v-27.1H397c14,0,26.3-2.2,37.1-6.7
	c10.8-4.4,19.2-10.9,25.2-19.3c6-8.4,9-18.3,9-29.7c0-7.9-1.5-15.2-4.5-21.9c-3-6.7-7.1-12.7-12.1-18.1c-12.4-3.5-26.8-5.2-43.3-5.2
	c-11.4,0-23.6,0.9-36.4,2.6c-12.9,1.7-26.6,4.4-41.2,7.9l-7.6-25.2c15.5-4.4,30.5-7.7,45-9.8c14.4-2.1,27.8-3.1,40.2-3.1
	c20.6,0,38.2,2.6,52.6,7.9c14.4,5.2,25.6,12.9,33.6,22.8c7.9,10,11.9,22.1,11.9,36.4c0,16.8-5.6,31.7-16.7,44.5
	c-11.1,12.9-26.8,22.1-47.1,27.8c22.8,4.8,40.3,13.4,52.4,25.9c12.1,12.5,18.1,28.3,18.1,47.4c0,17.1-4.7,31.7-14,43.8
	c-9.4,12.1-22.5,21.3-39.3,27.8c-16.8,6.5-36.5,9.8-59,9.8c-12.7,0-25.9-1.1-39.7-3.3S332.8,427,317.6,422.5z M319.9,337.8h14.3
	l21.4,84.7h-38.1L319.9,337.8z M325.2,238.8l-1.9-84.3h37.6l-21.4,84.3H325.2z"/>
<path class="st1" d="M682.6,435.4c-22.2,0-41.6-6-58.3-17.9c-16.7-11.9-29.5-28.6-38.6-50c-9-21.4-13.6-46.2-13.6-74.5
	c0-29.2,4.8-55.1,14.5-77.6c9.7-22.5,23.2-40.2,40.5-53.1c17.3-12.9,37.4-19.3,60.2-19.3c22.2,0,41.7,6,58.5,18.1
	c16.8,12.1,29.9,28.8,39.3,50.2c9.4,21.4,14,46.3,14,74.5c0,29.2-4.8,55.1-14.5,77.6c-9.7,22.5-23.2,40.1-40.7,52.8
	C726.6,429,706.1,435.4,682.6,435.4z M685,409.7c14.9,0,28.1-5,39.5-15c11.4-10,20.3-24.1,26.7-42.4c6.3-18.2,9.5-39.7,9.5-64.5
	c0-23.8-3-44.4-9-61.9c-6-17.4-14.8-31-26.4-40.7c-11.6-9.7-25.3-14.5-41.2-14.5c-8.9,0-17.8,1.7-26.7,5
	c-8.9,3.3-16.7,8.2-23.3,14.5c-7.9,15.9-14,32.4-18.1,49.5c-4.1,17.1-6.2,34.7-6.2,52.8c0,23.2,3.2,43.6,9.5,61.4
	c6.3,17.8,15.2,31.5,26.4,41.2C657,404.8,670.1,409.7,685,409.7z"/>
<path class="st1" d="M839.7,431.6v-12.4c11.1-2.9,22.1-5.2,32.8-6.9c10.8-1.7,21.3-3.1,31.4-4l3.8-235.1h-64.3v-12.4l77.1-17.6H944
	v265.1l61.4,9v14.3H839.7z"/>
<path d="M25.8,882.8v-10.9c4.4-1.9,9.3-3.8,14.5-5.7c5.2-1.9,11.5-3.5,18.8-4.8l5.2-278L39.1,551c8.6-5.4,17.7-9.8,27.4-13.1
	c9.7-3.3,19.9-5.6,30.7-6.9v331.3l35.2,9v11.4H25.8z M93.8,704.3l-0.5-9.5c9.2-10.2,18.7-18.9,28.6-26.2c9.8-7.3,20.3-13.6,31.4-19
	c1.9,0,3.8-0.1,5.7-0.2c1.9-0.2,3.6-0.2,5.2-0.2c14.6,0,28.1,3,40.5,9c12.4,6,23.8,15.6,34.3,28.6l-33.3,16.2
	c-16.5-14.3-34.3-21.4-53.3-21.4C133,681.4,113.5,689,93.8,704.3z M168.1,882.8v-10.9c4.4-2.2,9.2-4.2,14.3-5.9
	c5.1-1.7,11.3-3.2,18.6-4.5l4.8-158.5l33.3-16.2v175.6l35.7,9v11.4H168.1z"/>
<path d="M372.3,887.5c-21.3-0.3-38.4-6.2-51.4-17.6c-13-11.4-19.5-26.3-19.5-44.7c0-8.9,2-16.7,6-23.3c4-6.7,11.2-12.8,21.7-18.3
	c10.5-5.5,25.2-11.2,44.3-16.9c19-5.7,43.5-12.1,73.3-19v21.9l-113.3,22.4l11.9-6.2c-1.6,5.1-2.8,10.2-3.6,15.5
	c-0.8,5.2-1.2,10.1-1.2,14.5c0,13,3.2,23.1,9.5,30.2c6.3,7.1,16,10.7,29,10.7c9.2,0,19.1-1.9,29.8-5.7c10.6-3.8,21.8-9.8,33.6-18.1
	v7.6c-10.2,10.5-20.8,19.6-31.9,27.4C399.3,875.6,386.6,882.1,372.3,887.5z M478,885.6c-9.5,0-18.5-3.6-26.9-10.9
	c-8.4-7.3-14-17.9-16.9-31.9l4.8-143.3c-20.6-16.8-46.2-25.2-76.6-25.2c-6,0-12.1,0.4-18.1,1.2c-6,0.8-11.7,2-17.1,3.6l20-10.5
	l-8.6,67.1c-10.2-1.9-17.9-5.5-23.3-10.9c-5.4-5.4-8.1-12.1-8.1-20c0-10.2,3.6-19.5,10.9-28.1c7.3-8.6,17.2-15.3,29.7-20.2
	c12.5-4.9,26.3-7.4,41.2-7.4c16.8,0,32.3,3.3,46.4,9.8c14.1,6.5,26.6,15.8,37.4,27.8v164.7l46.6-2.4c-1.6,7.6-4.4,14.2-8.6,19.8
	c-4.1,5.6-9,9.8-14.8,12.6S484.3,885.6,478,885.6z"/>
<path d="M617.4,886.1c-10.8,0-22.3-0.9-34.5-2.6c-12.2-1.7-24.8-4.5-37.8-8.3l14.3-28.1c14.6,3.8,28.7,6.8,42.4,9
	c13.6,2.2,27.1,3.3,40.5,3.3c5.1,0,10.1-0.2,15-0.7c4.9-0.5,9.9-1,15-1.7l-15.7,7.6c6.7-3.2,12.5-7.9,17.4-14.3
	c4.9-6.3,7.4-13,7.4-20c0-7.6-3.2-14.1-9.5-19.5c-6.4-5.4-14.5-10.5-24.5-15.2s-20.5-9.7-31.7-14.8c-11.1-5.1-21.7-10.7-31.7-16.9
	c-10-6.2-18.2-13.6-24.5-22.4c-6.4-8.7-9.5-19.1-9.5-31.2c0-19.4,8.6-34.4,25.7-45.2c17.1-10.8,39.5-16.2,67.1-16.2
	c9.5,0,19.7,0.6,30.5,1.9c10.8,1.3,21.9,3.3,33.3,6.2l-10,30c-13.6-3.8-26.8-6.7-39.5-8.6c-12.7-1.9-24.8-2.9-36.2-2.9
	c-4.8,0-9.6,0.2-14.5,0.5c-4.9,0.3-10.1,0.8-15.5,1.4l11.9-5.2c-6.7,3.2-11.5,7.6-14.5,13.3c-3,5.7-4.5,11.6-4.5,17.6
	c0,7.9,3.2,14.9,9.5,20.9c6.3,6,14.5,11.4,24.5,16.2c10,4.8,20.5,9.6,31.7,14.5c11.1,4.9,21.7,10.5,31.7,16.7
	c10,6.2,18.2,13.4,24.5,21.7c6.3,8.3,9.5,18.3,9.5,30c0,19.7-9,35.1-27.1,46.2C669.8,880.6,646.3,886.1,617.4,886.1z M545.1,875.2
	l1.9-70.4h15.2l19.5,70L545.1,875.2z M690.3,723.3l-20.5-66.2h36.7l-1,66.2H690.3z"/>
<path d="M747.4,882.8v-10.9c4.4-1.9,9.3-3.8,14.5-5.7c5.2-1.9,11.5-3.5,18.8-4.8l5.2-278L760.7,551c8.6-5.4,17.7-9.8,27.4-13.1
	c9.7-3.3,19.9-5.6,30.7-6.9v331.3l35.2,9v11.4H747.4z M815.4,704.3l-0.5-9.5c9.2-10.2,18.7-18.9,28.6-26.2
	c9.8-7.3,20.3-13.6,31.4-19c1.9,0,3.8-0.1,5.7-0.2c1.9-0.2,3.6-0.2,5.2-0.2c14.6,0,28.1,3,40.5,9c12.4,6,23.8,15.6,34.3,28.6
	l-33.3,16.2c-16.5-14.3-34.3-21.4-53.3-21.4C854.6,681.4,835.1,689,815.4,704.3z M889.7,882.8v-10.9c4.4-2.2,9.2-4.2,14.3-5.9
	c5.1-1.7,11.3-3.2,18.6-4.5l4.8-158.5l33.3-16.2v175.6l35.7,9v11.4H889.7z"/>
</svg>
